<?xml version="1.0" encoding="UTF-8" standalone="no"?>
<svg
   xmlns:dc="http://purl.org/dc/elements/1.1/"
   xmlns:cc="http://creativecommons.org/ns#"
   xmlns:rdf="http://www.w3.org/1999/02/22-rdf-syntax-ns#"
   xmlns:svg="http://www.w3.org/2000/svg"
   xmlns="http://www.w3.org/2000/svg"
   height="58.23164"
   width="396.21957"
   version="1.1"
   viewBox="0 0 396.21959 58.231639"
   data-name="Layer 1"
   id="Layer_1">
  <metadata
     id="metadata28">
    <rdf:RDF>
      <cc:Work
         rdf:about="">
        <dc:format>image/svg+xml</dc:format>
        <dc:type
           rdf:resource="http://purl.org/dc/dcmitype/StillImage" />
        <dc:title>double hand test</dc:title>
      </cc:Work>
    </rdf:RDF>
  </metadata>
  <defs
     id="defs26" />
  <title
     id="title2">double hand test</title>
  <g
     transform="translate(-0.01902831,0.2636352)"
     id="layer2">
    <path
       style="fill:#ffffff;fill-opacity:1;stroke-width:0.14806148"
       d="M 6.7648536,36.912182 6.4124673,36.40285 C 5.8690816,35.613682 5.2768356,34.852646 4.7971164,34.033866 4.283343,33.145497 3.8658097,32.206787 3.4245864,31.281403 c -0.2413402,-0.503409 -0.099201,-0.9624 0.3894017,-1.184492 0.4886029,-0.222092 0.972764,-0.09476 1.2392747,0.454549 q 2.1202405,4.372256 4.240481,8.747473 a 0.9253843,0.9253843 0 0 1 0.045899,0.205805 L 9.1708528,39.6528 7.28603,37.522195 C 7.1098369,37.320831 6.9380855,37.113545 6.7648536,36.912182 Z"
       id="path4" />
    <path
       style="fill:#ffffff;fill-opacity:1;stroke-width:0.14806148"
       d="m 46.577107,36.432462 -0.373115,0.496006 c -0.269472,0.309449 -0.533021,0.621859 -0.806935,0.925385 -0.538944,0.592246 -1.085291,1.184492 -1.628676,1.776738 l -0.156945,-0.103644 a 2.3601001,2.3601001 0 0 1 0.130294,-0.429378 c 1.371049,-2.830936 2.752463,-5.65891 4.120551,-8.492807 0.279836,-0.57892 0.740307,-0.753633 1.27629,-0.513773 0.490084,0.219131 0.549308,0.658873 0.398285,1.191895 -0.444184,1.559087 -1.403622,2.802804 -2.320123,4.083536 -0.247263,0.33906 -0.430859,0.712175 -0.639626,1.066042 z"
       id="path6" />
    <path
       style="fill:#ffffff;fill-opacity:1;stroke-width:0.14806148"
       d="M 11.342915,41.1956 C 10.497484,40.64037 9.8415713,40.108829 9.4817819,39.238228 8.9132258,37.855333 8.2365848,36.516857 7.6724705,35.132482 A 19.569287,19.569287 0 0 1 6.8640548,32.54881 c -0.134736,-0.534502 0.094759,-1.003857 0.6692379,-1.123787 0.5300602,-0.109566 0.953516,0.08143 1.126748,0.67368 0.7403074,2.557021 1.5057853,5.111082 2.2594183,7.665143 0.130294,0.439742 0.260588,0.879485 0.423456,1.431754 z"
       id="path8" />
    <path
       style="fill:#ffffff;fill-opacity:1;stroke-width:0.14806148"
       d="M 12.916808,42.467449 C 12.176501,42.0129 11.683456,41.57908 11.480612,40.779548 11.128226,39.402576 10.642584,38.061139 10.24874,36.694531 a 5.2354542,5.2354542 0 0 1 -0.171751,-1.307383 c -0.01184,-0.503409 0.31241,-0.758075 0.79509,-0.778803 0.482681,-0.02073 0.954997,0.06811 1.036431,0.681083 q 0.356828,2.517045 0.706253,5.020765 c 0.102162,0.684044 0.193961,1.368088 0.302045,2.157256 z"
       id="path10" />
    <path
       style="fill:#ffffff;fill-opacity:1;stroke-width:0.14806148"
       d="m 41.609644,41.140818 c 0.250224,-0.835067 0.487123,-1.602026 0.712176,-2.368984 q 0.922423,-3.167035 1.840404,-6.334071 c 0.03405,-0.116968 0.0918,-0.226534 0.122891,-0.344983 0.159907,-0.592246 0.607053,-0.786206 1.13119,-0.660354 0.592246,0.148061 0.752153,0.599649 0.642587,1.197817 -0.395324,2.158737 -1.538359,4.016909 -2.348255,6.009816 -0.427898,1.049756 -0.971284,1.948489 -2.100993,2.500759 z"
       id="path12" />
    <path
       style="fill:#ffffff;fill-opacity:1;stroke-width:0.14806148"
       d="m 40.031309,42.427472 c 0.148061,-1.070485 0.278355,-2.072861 0.417533,-3.073756 0.182116,-1.310345 0.386441,-2.617728 0.549308,-3.929552 0.08291,-0.679603 0.50489,-0.848393 1.08233,-0.8173 0.632222,0.03553 0.836547,0.45751 0.801013,1.012741 a 5.0074395,5.0074395 0 0 1 -0.189519,1.085291 c -0.368673,1.273328 -0.780284,2.533332 -1.137112,3.809622 -0.226535,0.814338 -0.595208,1.495421 -1.523553,1.912954 z"
       id="path14" />
  </g>
  <g
     transform="translate(-0.01902831,0.2636352)"
     style="display:inline"
     id="layer1">
    <g
       transform="matrix(1.7094516,0,0,1.7094516,5.9499711,-0.2636352)"
       id="g826">
      <path
         class="st0"
         d="m 20.525,8.5 -2.1,2.1 c 3.5,3.5 3.5,9.2 0,12.7 -3.5,3.5 -9.2,3.5 -12.7,0 -3.5,-3.5 -3.5,-9.2 0,-12.7 v 0 l 5.6,-5.6 0.7,-0.8 V 4.2 0 l -8.5,8.5 c -4.7,4.7 -4.7,12.2 0,16.9 4.7,4.7 12.2,4.7 16.9,0 4.8,-4.7 4.8,-12.3 0.1,-16.9 z"
         id="path4-3"
         style="fill:#ef7d00;fill-opacity:1" />
      <path
         style="fill:#ef7d00;fill-opacity:1"
         d="m 17.924998,6.2999999 a 1.6,1.6 0 0 1 -1.6,1.6 1.6,1.6 0 0 1 -1.6,-1.6 1.6,1.6 0 0 1 1.6,-1.6 1.6,1.6 0 0 1 1.6,1.6 z"
         id="circle6" />
    </g>
  </g>
  <g
     style="display:inline"
     id="layer4">
    <text
       id="text828-4"
       y="57.060318"
       x="52.623631"
       style="font-style:normal;font-variant:normal;font-weight:300;font-stretch:normal;font-size:65.16561127px;line-height:1.25;font-family:Roboto;-inkscape-font-specification:'Roboto, Light';font-variant-ligatures:normal;font-variant-caps:normal;font-variant-numeric:normal;font-feature-settings:normal;text-align:start;letter-spacing:0px;word-spacing:0px;writing-mode:lr-tb;text-anchor:start;display:inline;fill:#ffffff;fill-opacity:1;stroke:none;stroke-width:1.629125"
       xml:space="preserve"
       transform="translate(-0.01902831,0.2636352)"><tspan
         style="font-style:normal;font-variant:normal;font-weight:300;font-stretch:normal;font-size:65.16561127px;font-family:Roboto;-inkscape-font-specification:'Roboto, Light';font-variant-ligatures:normal;font-variant-caps:normal;font-variant-numeric:normal;font-feature-settings:normal;text-align:start;writing-mode:lr-tb;text-anchor:start;fill:#ffffff;fill-opacity:1;stroke-width:1.629125"
         y="57.060318"
         x="52.623631"
         id="tspan826-8">Torchbearer</tspan></text>
  </g>
  <g
     transform="translate(-0.01902831,0.2636352)"
     style="display:inline"
     id="layer3">
    <path
       style="fill:#ffffff;fill-opacity:1;stroke-width:0.14806148"
       d="m 6.7648536,36.912182 c 0.4678743,0.706253 0.8202606,1.538358 1.4243515,2.09655 1.6982653,1.566491 3.5001739,3.020455 5.2606249,4.518837 0.632222,0.537463 1.378452,0.614455 2.155775,0.521176 0.592246,-0.07107 0.91502,-0.740307 0.644068,-1.35032 -0.869121,-1.967738 -1.769335,-3.92363 -2.619208,-5.901731 -0.130294,-0.296123 -0.189519,-0.752153 -0.05922,-1.036431 0.296123,-0.633703 1.036431,-0.592246 1.480615,0.07255 0.618897,0.941671 1.196337,1.912955 1.80487,2.862029 0.923903,1.443599 1.795986,2.927176 2.813168,4.304147 1.017182,1.376972 2.158736,2.654743 3.264756,3.945839 0.339061,0.396805 0.580401,0.846912 1.129709,1.120826 0.352386,0.176193 0.496006,0.897252 0.605571,1.400661 0.244302,1.134151 0.506371,2.278667 0.583363,3.429104 0.09476,1.449522 0.01925,2.909409 0,4.364853 a 4.498108,4.498108 0 0 1 -0.11845,0.707734 h -1.03643 c -0.838028,-0.148062 -1.676056,-0.321294 -2.517045,-0.45603 -0.476758,-0.07551 -0.999415,0 -1.430274,-0.173231 -0.275395,-0.109566 -0.509332,-0.512293 -0.610014,-0.830625 a 7.6532983,7.6532983 0 0 1 -0.2295,-1.49246 C 19.154639,53.508394 18.143379,52.614102 17.049205,51.749423 15.433854,50.471653 13.894014,49.0932 12.240167,47.868732 10.167307,46.340737 8.6467151,44.340426 7.2564177,42.258682 4.9881157,38.853268 2.8886038,35.348652 0.71950302,31.884013 0.52554247,31.574565 0.3301013,31.263636 0.15834998,30.939381 c -0.24134023,-0.454549 -0.18359625,-0.947593 0.28723928,-1.111942 0.29612298,-0.106604 0.86764034,0.02369 1.06604274,0.259108 0.7891677,0.935749 1.4806149,1.954412 2.2061162,2.940501 0.7255013,0.98609 1.4258321,1.941086 2.1557752,2.900525 a 3.4912899,3.4912899 0 0 0 0.5419051,0.475277 z"
       id="path18" />
    <path
       style="fill:#ffffff;fill-opacity:1;stroke-width:0.14806148"
       d="m 52.973364,30.730614 c -1.304422,2.176504 -2.562945,4.38262 -3.928072,6.514706 -1.302941,2.041768 -2.688796,4.033195 -4.09538,6.005374 -0.762517,1.070484 -1.557607,2.146891 -2.497798,3.055989 -1.245197,1.202259 -2.642897,2.249054 -3.982854,3.353593 -1.172647,0.966841 -2.355658,1.924799 -3.537189,2.878315 -0.901694,0.728463 -1.184492,1.751567 -1.360685,2.826494 -0.06811,0.429378 -0.08588,0.86764 -0.16879,1.292577 -0.100682,0.513773 -0.393844,0.692927 -0.966842,0.740307 -1.206701,0.102163 -2.398596,0.368673 -3.596413,0.568556 h -1.03643 A 6.7516039,6.7516039 0 0 1 27.685942,57.11073 c -0.01777,-1.527995 -0.04442,-3.05747 -0.01481,-4.589906 a 8.8836893,8.8836893 0 0 1 0.821741,-3.597894 c 0.592246,-1.27481 1.658289,-2.177985 2.52741,-3.214415 1.862613,-2.220923 3.628987,-4.492186 5.077028,-7.009231 0.549308,-0.954997 1.165244,-1.871497 1.75749,-2.802804 0.285759,-0.444185 0.627781,-0.786207 1.206701,-0.453068 0.544866,0.315371 0.522657,0.762516 0.296123,1.270367 q -1.305902,2.909408 -2.596998,5.829181 c -0.416053,0.941671 -0.02813,1.439158 1.006818,1.525033 1.01126,0.0844 1.683459,-0.491564 2.354177,-1.03643 1.480615,-1.217066 2.96123,-2.440053 4.351528,-3.765204 0.691447,-0.661835 1.162282,-1.554645 1.7338,-2.342332 l 0.373114,-0.496006 q 1.713072,-2.23869 3.423182,-4.47738 c 0.413092,-0.543386 0.814338,-1.097136 1.22891,-1.639041 0.660355,-0.863198 1.094175,-0.869121 1.744165,-0.03109 z"
       id="path20" />
  </g>
</svg>
